#!OML:ASF F:\VICON\USERDATA\INSTALL\rory3\rory3.ASF
:FULLY-SPECIFIED
:DEGREES
2527
root -10.7312 17.485 7.1485 -361.328 53.3338 -358.585
lowerback 13.0695 2.23296 0.835215
upperback 0.847 3.11483 0.0468661
thorax -6.39141 1.51126 -0.992605
lowerneck -17.1178 -0.725274 -9.74862
upperneck 38.6705 1.11108 5.8964
head 16.8169 0.173666 4.70864
rclavicle -9.04967e-014 8.74653e-015
rhumerus -33.8541 -15.5529 -71.4458
rradius 31.7646
rwrist 6.05466
rhand -20.3432 9.50114
rfingers 7.12502
rthumb 6.00851 -20.3937
lclavicle -9.04967e-014 8.74653e-015
lhumerus -32.3483 6.40013 82.8144
lradius 31.9966
lwrist -4.81431
lhand -20.339 23.1716
lfingers 7.12502
lthumb 6.01249 53.0663
rfemur 0.030039 7.36498 5.84026
rtibia 21.4697
rfoot -16.6411 4.32876
rtoes -18.6592
lfemur -6.52827 -10.7252 -10.2818
ltibia 25.1795
lfoot -14.7012 -9.737
ltoes -16.1427
2528
root -10.6545 17.4858 7.05459 -361.084 53.3194 -358.191
lowerback 13.093 2.08322 0.746962
upperback 0.826579 2.9006 0.00583146
thorax -6.43248 1.40782 -0.948895
lowerneck -17.1194 -0.709003 -9.77266
upperneck 38.7694 1.14815 5.88993
head 16.8665 0.180146 4.72332
rclavicle -1.02623e-014 1.17283e-014
rhumerus -34.0845 -15.8702 -71.1835
rradius 31.9377
rwrist 5.68794
rhand -19.9371 9.52334
rfingers 7.12502
rthumb 6.40058 -20.36
lclavicle -1.02623e-014 1.17283e-014
lhumerus -32.3974 5.98264 83.0306
lradius 31.8373
lwrist -4.51418
lhand -20.2123 22.9563
lfingers 7.12502
lthumb 6.13486 52.8475
rfemur 0.364809 7.7187 5.31257
rtibia 20.9919
rfoot -16.2004 3.58869
rtoes -18.6711
lfemur -6.51759 -10.5482 -11.0902
ltibia 25.501
lfoot -14.8731 -9.39545
ltoes -14.225
2529
root -10.5789 17.4902 6.94947 -360.857 53.2375 -358.001
lowerback 12.9614 1.98204 0.771086
upperback 0.820627 2.77317 0.0762805
thorax -6.37004 1.3464 -0.859862
lowerneck -17.0775 -0.715074 -9.94063
upperneck 38.7342 1.20566 5.84647
head 16.8318 0.172303 4.73946
rclavicle -6.44808e-014 7.95139e-015
rhumerus -34.304 -16.0705 -70.794
rradius 32.2648
rwrist 5.39478
rhand -20.0173 9.20771
rfingers 7.12502
rthumb 6.32315 -20.6779
lclavicle -6.44808e-014 7.95139e-015
lhumerus -32.3142 5.75553 83.3992
lradius 31.6195
lwrist -4.33104
lhand -20.5351 22.929
lfingers 7.12502
lthumb 5.82318 52.829
rfemur 0.447176 7.96803 4.8434
rtibia 20.5614
rfoot -15.594 2.97367
rtoes -18.3587
lfemur -6.69225 -10.7149 -11.687
ltibia 25.7762
lfoot -15.0582 -9.15259
ltoes -13.2689
2530
root -10.5022 17.4986 6.83468 -360.433 53.1446 -357.72
lowerback 12.7922 1.90496 0.912591
upperback 0.760541 2.68667 0.0395934
thorax -6.33238 1.29938 -0.957124
lowerneck -17.0182 -0.768108 -9.99584
upperneck 38.6843 1.16681 5.75446
head 16.7977 0.135189 4.69491
rclavicle 2.36057e-015 -3.18055e-015
rhumerus -34.5485 -16.437 -70.4426
rradius 32.565
rwrist 5.05825
rhand -20.2454 8.94968
rfingers 7.12502
rthumb 6.10288 -20.9424
lclavicle 2.36057e-015 -3.18055e-015
lhumerus -32.1447 5.56645 83.6996
lradius 31.3484
lwrist -4.49502
lhand -20.7674 23.5288
lfingers 7.12502
lthumb 5.59891 53.4348
rfemur 0.277979 7.85067 4.24051
rtibia 20.2602
rfoot -14.9225 2.3704
rtoes -18.7482
lfemur -7.0666 -10.9578 -12.2963
ltibia 25.9787
lfoot -15.1941 -9.14876
ltoes -13.0419
2531
root -10.4267 17.5034 6.73178 -360.016 53.1365 -357.299
lowerback 12.6571 1.81594 0.891356
upperback 0.753071 2.55886 -0.0352697
thorax -6.26472 1.23705 -0.996132
lowerneck -16.9866 -0.810912 -9.88475
upperneck 38.6839 1.11136 5.60691
head 16.7996 0.106492 4.59673
rclavicle -1.15047e-013 1.15295e-014
rhumerus -34.7133 -16.8493 -70.2066
rradius 32.7363
rwrist 4.789
rhand -20.2652 8.86063
rfingers 7.12502
rthumb 6.0838 -21.032
lclavicle -1.15047e-013 1.15295e-014
lhumerus -31.8929 5.13998 84.0351
lradius 31.0417
lwrist -4.69538
lhand -21.1552 24.7461
lfingers 7.12502
lthumb 5.22453 54.6617
rfemur 0.182657 7.83669 3.67044
rtibia 20.2037
rfoot -14.2798 1.42551
rtoes -18.5781
lfemur -7.29611 -11.1588 -12.9392
ltibia 26.1158
lfoot -15.3865 -9.40343
ltoes -14.0552
2532
root -10.3591 17.5058 6.63843 -359.672 53.185 -356.893
lowerback 12.6048 1.67895 0.70897
upperback 0.720956 2.34964 -0.0462394
thorax -6.28058 1.13919 -0.866956
lowerneck -16.8474 -0.781527 -9.74931
upperneck 38.6951 1.16408 5.42092
head 16.768 0.121603 4.49397
rclavicle -5.91384e-014 2.06736e-014
rhumerus -34.8985 -17.0549 -70.0368
rradius 32.8504
rwrist 4.65973
rhand -20.2948 8.8669
rfingers 7.12502
rthumb 6.05523 -21.0266
lclavicle -5.91384e-014 2.06736e-014
lhumerus -31.7189 4.68437 84.3294
lradius 30.6909
lwrist -4.62155
lhand -21.3071 25.1695
lfingers 7.12502
lthumb 5.07781 55.0887
rfemur 0.0686837 7.93419 3.20831
rtibia 20.3898
rfoot -13.7051 0.278215
rtoes -17.934
lfemur -7.4276 -11.1015 -13.5
ltibia 26.1888
lfoot -15.5531 -9.92223
ltoes -14.9888
2533
root -10.3009 17.5082 6.54884 -359.327 53.1432 -356.456
lowerback 12.6024 1.60173 0.333869
upperback 0.712354 2.1994 0.0412626
thorax -6.30857 1.07722 -0.537347
lowerneck -16.8195 -0.770819 -9.86421
upperneck 38.786 1.25118 5.34948
head 16.8025 0.127193 4.5026
rclavicle -4.12975e-014 4.77083e-015
rhumerus -35.0091 -17.1102 -69.8002
rradius 32.9265
rwrist 4.57648
rhand -20.4164 8.86217
rfingers 7.12502
rthumb 5.93783 -21.0346
lclavicle -4.12975e-014 4.77083e-015
lhumerus -31.3851 4.83033 84.5068
lradius 30.052
lwrist -4.78971
lhand -20.8782 24.0822
lfingers 7.12502
lthumb 5.4919 53.991
rfemur -0.127314 8.02014 2.80049
rtibia 20.7419
rfoot -13.1592 -1.11878
rtoes -18.4098
lfemur -7.50248 -10.6278 -14.05
ltibia 26.2022
lfoot -15.6098 -10.7444
ltoes -14.6746
2534
root -10.2428 17.5117 6.46458 -359.252 52.8752 -356.262
lowerback 12.5843 1.63346 0.0890532
upperback 0.787522 2.2134 0.136861
thorax -6.23186 1.09317 -0.299463
lowerneck -16.9063 -0.800419 -10.0027
upperneck 38.8909 1.2659 5.35762
head 16.8806 0.108992 4.54285
rclavicle 3.33213e-014 -1.47101e-014
rhumerus -35.0274 -17.2719 -69.5877
rradius 32.9726
rwrist 4.29776
rhand -20.1543 8.75196
rfingers 7.12502
rthumb 6.19088 -21.1376
lclavicle 3.33213e-014 -1.47101e-014
lhumerus -30.9559 4.84941 84.7242
lradius 29.4574
lwrist -5.07535
lhand -20.7041 23.8002
lfingers 7.12502
lthumb 5.66 53.7046
rfemur -0.355492 8.10042 2.6242
rtibia 21.1966
rfoot -12.6133 -2.75469
rtoes -19.141
lfemur -7.43068 -9.9219 -14.4588
ltibia 26.1968
lfoot -15.5583 -11.6376
ltoes -13.2418
2535
root -10.1807 17.5188 6.37925 -359.235 52.5354 -356.171
lowerback 12.5196 1.6962 0.0299163
upperback 0.850106 2.29134 0.181358
thorax -6.13341 1.13435 -0.229848
lowerneck -16.9555 -0.869444 -10.1877
upperneck 38.9894 1.19902 5.45182
head 16.9541 0.0629884 4.61525
rclavicle -7.59357e-014 7.95139e-016
rhumerus -35.1723 -17.6129 -69.3767
rradius 33.0986
rwrist 4.08856
rhand -19.7824 8.7714
rfingers 7.12502
rthumb 6.54987 -21.1073
lclavicle -7.59357e-014 7.95139e-016
lhumerus -30.6061 4.30422 85.1386
lradius 29.0761
lwrist -5.31061
lhand -20.8147 24.4631
lfingers 7.12502
lthumb 5.55329 54.3703
rfemur -0.679082 7.95898 2.47409
rtibia 21.7122
rfoot -12.0692 -4.15598
rtoes -18.2682
lfemur -7.35501 -9.19459 -14.8286
ltibia 26.1643
lfoot -15.2998 -12.4912
ltoes -11.5226
2536
root -10.1189 17.5312 6.29291 -359.222 52.1976 -356.164
lowerback 12.3982 1.73251 0.00448168
upperback 0.891766 2.34017 0.250093
thorax -6.02542 1.16051 -0.147061
lowerneck -16.9349 -0.887881 -10.2706
upperneck 38.9834 1.21213 5.40893
head 16.9459 0.0490276 4.61145
rclavicle 1.37658e-014 -1.59028e-015
rhumerus -35.3384 -17.9692 -69.2408
rradius 33.0629
rwrist 4.51599
rhand -20.1584 9.07396
rfingers 7.12502
rthumb 6.18686 -20.8157
lclavicle 1.37658e-014 -1.59028e-015
lhumerus -30.2739 3.92301 85.4597
lradius 28.6823
lwrist -5.60415
lhand -20.9675 24.6263
lfingers 7.12502
lthumb 5.40569 54.5374
rfemur -1.09427 7.7261 2.39152
rtibia 22.275
rfoot -11.5289 -5.5648
rtoes -16.3349
lfemur -7.32297 -8.34124 -15.1677
ltibia 26.0678
lfoot -15.2576 -13.0602
ltoes -11.7213
2537
root -10.0573 17.546 6.20784 -359.3 51.7104 -356.253
lowerback 12.3114 1.80196 0.0425544
upperback 0.919355 2.43986 0.291227
thorax -5.94812 1.20932 -0.139049
lowerneck -16.8892 -0.865208 -10.2297
upperneck 38.9603 1.23911 5.36379
head 16.9191 0.0597458 4.58504
rclavicle 7.88678e-014 -2.78299e-015
rhumerus -35.4786 -18.0834 -69.2799
rradius 32.9388
rwrist 4.83826
rhand -20.7822 9.43141
rfingers 7.12502
rthumb 5.58465 -20.475
lclavicle 7.88678e-014 -2.78299e-015
lhumerus -29.9986 3.66401 85.5654
lradius 28.3219
lwrist -5.70068
lhand -21.2361 24.4644
lfingers 7.12502
lthumb 5.14636 54.3819
rfemur -1.56739 7.63208 2.42799
rtibia 22.9063
rfoot -11.0414 -7.04491
rtoes -13.3326
lfemur -7.17739 -7.57654 -15.4784
ltibia 25.8808
lfoot -15.3574 -13.1923
ltoes -12.877
